# xmcd CD database file
#
# Track frame offsets:
#	150
#	17050
#	29322
#	47493
#	68344
#	84824
#	106168
#	128119
#	141863
#	160419
#	180301
#	204952
#
# Disc length: 2971 seconds
#
# Revision: 4
# Processed by: cddbd v1.5.1PL0 Copyright (c) Steve Scherf et al.
# Submitted via: CDex 1.51
#
DISCID=890b990c
DTITLE=Helena Paul - All that Jazz
DYEAR=1900
DGENRE=Blues
TTITLE0=The lady is a tramp
TTITLE1=Let the good times roll
TTITLE2=On green dolphin street
TTITLE3=Teach me tonight
TTITLE4=Bogey's blues
TTITLE5=Wave
TTITLE6=Spain
TTITLE7=In my life
TTITLE8=Don't get around much anymore
TTITLE9=Dr. Feelgood
TTITLE10=Lover man
TTITLE11=I can't stop loving you
EXTD=
EXTT0=
EXTT1=
EXTT2=
EXTT3=
EXTT4=
EXTT5=
EXTT6=
EXTT7=
EXTT8=
EXTT9=
EXTT10=
EXTT11=
PLAYORDER=
